#N canvas 280 175 597 500 10;
#X obj 147 146 t b b;
#X obj 212 216 del;
#X obj 212 324 line~;
#X obj 212 349 outlet~;
#X obj 98 82 inlet trigger;
#X obj 227 84 inlet attack;
#X obj 317 84 inlet decay;
#X obj 147 268 pack 1 f;
#X obj 212 269 pack 0 f;
#X obj 174 245 pack 0 15;
#X obj 227 155 pow 4;
#X obj 317 155 pow 4;
#X obj 227 108 * 0.85;
#X obj 227 132 + 0.15;
#X obj 317 132 + 0.2;
#X obj 317 109 * 0.8;
#X obj 227 177 * 4000;
#X obj 317 177 * 4000;
#X connect 0 0 1 0;
#X connect 0 0 7 0;
#X connect 0 1 9 0;
#X connect 1 0 8 0;
#X connect 2 0 3 0;
#X connect 4 0 0 0;
#X connect 5 0 12 0;
#X connect 6 0 15 0;
#X connect 7 0 2 0;
#X connect 8 0 2 0;
#X connect 9 0 2 0;
#X connect 10 0 16 0;
#X connect 11 0 17 0;
#X connect 12 0 13 0;
#X connect 13 0 10 0;
#X connect 14 0 11 0;
#X connect 15 0 14 0;
#X connect 16 0 7 1;
#X connect 16 0 1 1;
#X connect 17 0 8 1;
