#N canvas 0 23 344 334 10;
#N canvas 439 101 646 649 oscillator~ 0;
#N canvas 314 100 498 265 number_of_harmonics_allowed 0;
#X obj 135 68 / 2;
#X obj 15 151 /;
#X obj 135 44 samplerate~;
#X obj 15 98 t b f;
#X text 241 49 sr / 2 = nyquist frequency;
#X obj 15 229 outlet;
#X obj 14 18 inlet~;
#X obj 15 121 f;
#X obj 135 21 loadbang;
#X text 104 209 harmonics never should exceed the nyquist frequency
;
#X obj 15 49 snapshot~;
#X obj 15 72 change;
#X obj 15 177 int;
#X obj 15 200 change;
#X obj 78 21 env~;
#X obj 78 41 bang;
#X connect 0 0 7 1;
#X connect 1 0 12 0;
#X connect 2 0 0 0;
#X connect 3 0 7 0;
#X connect 3 1 1 1;
#X connect 6 0 10 0;
#X connect 7 0 1 0;
#X connect 8 0 2 0;
#X connect 10 0 11 0;
#X connect 11 0 3 0;
#X connect 12 0 13 0;
#X connect 13 0 5 0;
#X connect 14 0 15 0;
#X connect 15 0 10 0;
#X restore 161 113 pd number_of_harmonics_allowed;
#X obj 18 -131 inlet~;
#X obj 40 482 outlet~;
#X obj 345 366 snapshot~;
#X obj 206 273 == 0;
#X obj 206 377 f;
#X obj 206 356 sel 1;
#X obj 340 273 change;
#X obj 356 302 sel 1;
#X obj 554 -124 inlet;
#X text 340 346 sync phase \, when switching dsp on;
#X msg 408 69 get_num_of_tables;
#X obj 408 132 route num_of_tables;
#X obj 408 23 loadbang;
#X obj 40 272 phasor~;
#X text 196 92 get the number of tables ->;
#X obj 161 223 >;
#X obj 408 91 s BLSAW;
#X obj 408 111 r BLSAW;
#X obj 161 143 t f f;
#X obj 408 46 del 0;
#X obj 233 27 +~;
#X obj 233 53 +~ 1;
#X obj 233 73 wrap~;
#X obj 408 366 snapshot~;
#X obj 248 -26 sig~ 1;
#X obj 248 0 -~;
#X obj 333 -16 env~;
#X obj 333 8 change;
#X obj 333 32 bang;
#X obj 554 -99 t b f;
#X obj 476 261 snapshot~;
#X obj 476 287 +;
#X obj 238 -96 *~ 0.4;
#X text 597 -126 phase;
#N canvas 438 301 207 227 raw_pulse 0;
#X obj 6 17 inlet~;
#X obj 6 156 outlet~;
#X obj 129 21 inlet;
#X obj 129 46 switch~;
#X obj 6 84 *~ -2;
#X obj 6 110 +~ 1;
#X obj 6 51 expr~ $v1>$v2;
#X obj 81 18 inlet~;
#X connect 0 0 6 0;
#X connect 2 0 3 0;
#X connect 4 0 5 0;
#X connect 5 0 1 0;
#X connect 6 0 4 0;
#X connect 7 0 6 1;
#X restore 40 401 pd raw_pulse;
#N canvas 0 23 578 282 bandlimited_pulse 0;
#X obj 16 31 inlet~;
#X obj 126 34 inlet;
#X obj 261 34 inlet;
#X obj 48 236 outlet~;
#X msg 126 102 set \$1;
#X obj 261 124 switch~;
#X obj 347 36 inlet;
#X text 126 15 choose table;
#X text 346 17 set phase;
#X text 256 14 switch dsp;
#X obj 126 77 makefilename BLSAW%d;
#X obj 17 134 tabosc4~;
#X obj 90 134 tabosc4~;
#X obj 48 163 -~;
#X obj 467 36 inlet~;
#X obj 405 35 inlet;
#X text 404 16 set phase;
#X obj 153 187 *~ 2;
#X obj 153 160 -~ 0.5;
#X obj 48 204 +~;
#X obj 126 55 max 1;
#X connect 0 0 11 0;
#X connect 0 0 12 0;
#X connect 1 0 20 0;
#X connect 2 0 5 0;
#X connect 4 0 11 0;
#X connect 4 0 12 0;
#X connect 6 0 11 1;
#X connect 10 0 4 0;
#X connect 11 0 13 0;
#X connect 12 0 13 1;
#X connect 13 0 19 0;
#X connect 14 0 18 0;
#X connect 15 0 12 1;
#X connect 17 0 19 1;
#X connect 18 0 17 0;
#X connect 19 0 3 0;
#X connect 20 0 10 0;
#X restore 185 400 pd bandlimited_pulse;
#X obj 238 -63 +~ 0.5;
#X obj 238 -129 inlet~;
#X text 285 -128 pulse width (50% ~ 90%);
#X text 199 221 switch to raw pulse \, when number of allowed harmonics
exceeds num_of_tables;
#X connect 0 0 19 0;
#X connect 1 0 36 0;
#X connect 1 0 0 0;
#X connect 1 0 14 0;
#X connect 3 0 36 3;
#X connect 4 0 6 0;
#X connect 4 0 7 0;
#X connect 5 0 36 1;
#X connect 6 0 5 0;
#X connect 7 0 8 0;
#X connect 7 0 36 2;
#X connect 8 0 3 0;
#X connect 8 0 24 0;
#X connect 9 0 30 0;
#X connect 11 0 17 0;
#X connect 12 0 16 1;
#X connect 13 0 20 0;
#X connect 14 0 3 0;
#X connect 14 0 35 0;
#X connect 14 0 21 0;
#X connect 16 0 4 0;
#X connect 16 0 35 2;
#X connect 18 0 12 0;
#X connect 19 0 16 0;
#X connect 19 1 5 1;
#X connect 20 0 11 0;
#X connect 21 0 22 0;
#X connect 22 0 23 0;
#X connect 23 0 24 0;
#X connect 24 0 36 4;
#X connect 25 0 26 0;
#X connect 26 0 21 1;
#X connect 26 0 31 0;
#X connect 27 0 28 0;
#X connect 28 0 29 0;
#X connect 29 0 24 0;
#X connect 30 0 31 0;
#X connect 30 1 14 1;
#X connect 30 1 36 3;
#X connect 30 1 32 1;
#X connect 31 0 32 0;
#X connect 32 0 36 4;
#X connect 33 0 37 0;
#X connect 35 0 2 0;
#X connect 36 0 2 0;
#X connect 37 0 35 1;
#X connect 37 0 36 5;
#X connect 37 0 26 1;
#X connect 37 0 27 0;
#X connect 38 0 33 0;
#X restore 19 161 pd oscillator~;
#X obj 9 135 inlet~;
#X obj 121 135 inlet;
#X obj 19 185 outlet~;
#N canvas 555 327 605 504 lookup-table-creation 0;
#X obj 15 195 until;
#X obj 15 217 f;
#X obj 50 217 + 1;
#X obj 58 195 1;
#X obj 80 345 pack f s;
#X obj 15 125 t f b b;
#X msg 136 270 clear;
#X obj 15 248 t b f f;
#X obj 15 407 f;
#X obj 15 474 send;
#X msg 80 374 obj 10 \$1 table \$2 515;
#X text 282 374 create the necessary tables;
#X text 238 439 fill each table with the appropriate sinesum \,;
#X text 237 457 respectively the appropriate number of harmonics.;
#X obj 131 318 makefilename BLSAW%d;
#N canvas 535 94 218 342 bandlimited_saw_sinesum 0;
#X obj 43 67 until;
#X obj 21 38 t b f b;
#X obj 84 67 1;
#X obj 43 99 f 1;
#X obj 84 99 + 1;
#X obj 43 194 list prepend;
#X obj 154 195 list;
#X obj 21 233 list;
#X obj 135 129 b;
#X obj 21 278 list trim;
#X obj 21 16 inlet;
#X obj 21 300 outlet;
#X obj 21 256 list prepend sinesum 512;
#X obj 43 143 pow -1;
#X obj 43 167 * 0.63662;
#X text 120 167 = 2 / pi;
#X connect 0 0 3 0;
#X connect 1 0 7 0;
#X connect 1 1 0 0;
#X connect 1 2 2 0;
#X connect 1 2 8 0;
#X connect 2 0 3 1;
#X connect 3 0 4 0;
#X connect 3 0 13 0;
#X connect 4 0 3 1;
#X connect 5 0 6 0;
#X connect 5 0 7 1;
#X connect 6 0 5 1;
#X connect 7 0 12 0;
#X connect 8 0 7 1;
#X connect 8 0 5 1;
#X connect 9 0 11 0;
#X connect 10 0 1 0;
#X connect 12 0 9 0;
#X connect 13 0 14 0;
#X connect 14 0 5 0;
#X restore 15 442 pd bandlimited_saw_sinesum;
#X obj 80 317 * 20;
#X obj 80 396 s pd-\$0-lookup-tables-saw;
#X obj 138 123 r \$0-create_additional_tables;
#X obj 15 28 r \$0-create_tables;
#X obj 15 66 \$1;
#X connect 0 0 1 0;
#X connect 1 0 2 0;
#X connect 1 0 7 0;
#X connect 2 0 1 1;
#X connect 3 0 1 1;
#X connect 4 0 10 0;
#X connect 5 0 0 0;
#X connect 5 1 3 0;
#X connect 5 2 6 0;
#X connect 6 0 17 0;
#X connect 7 0 8 0;
#X connect 7 1 16 0;
#X connect 7 2 8 1;
#X connect 7 2 14 0;
#X connect 8 0 15 0;
#X connect 10 0 17 0;
#X connect 14 0 4 1;
#X connect 14 0 9 1;
#X connect 15 0 9 0;
#X connect 16 0 4 0;
#X connect 18 0 0 0;
#X connect 19 0 20 0;
#X connect 20 0 5 0;
#X restore 22 66 pd lookup-table-creation;
#N canvas 647 23 291 799 \$0-lookup-tables-saw 0;
#X restore 22 94 pd \$0-lookup-tables-saw;
#N canvas 169 33 537 620 singleton-communication 0;
#X obj 127 22 loadbang;
#X obj 171 100 + 1;
#X obj 16 96 spigot;
#X obj 149 153 == 1;
#X obj 127 47 t b b b;
#X obj 270 225 \$1;
#X obj 127 184 t b b;
#X msg 270 246 newdollar1 \$1;
#X obj 125 396 > \$1;
#X obj 134 419 sel 1;
#X obj 134 441 f;
#X text 189 397 if new is bigger \, use new number_of_tables;
#X obj 134 373 t f f f;
#X obj 178 502 - \$1;
#X obj 178 526 moses 1;
#X obj 222 549 s \$0-create_additional_tables;
#X obj 127 214 f;
#X obj 127 240 sel 1;
#X obj 127 264 s \$0-create_tables;
#X obj 18 348 route get_num_of_tables newdollar1;
#X obj 18 423 \$1;
#X msg 18 461 num_of_tables \$1;
#X obj 171 77 value BLSAW.instance;
#X obj 149 131 value BLSAW.instance;
#X obj 270 267 s BLSAW;
#X obj 16 69 r BLSAW;
#X obj 16 120 s \$0-BLSAW;
#X obj 18 319 r \$0-BLSAW;
#X obj 18 488 s BLSAW;
#X connect 0 0 4 0;
#X connect 1 0 23 0;
#X connect 2 0 26 0;
#X connect 3 0 2 1;
#X connect 3 0 16 1;
#X connect 4 0 6 0;
#X connect 4 1 23 0;
#X connect 4 2 22 0;
#X connect 5 0 7 0;
#X connect 6 0 16 0;
#X connect 6 1 5 0;
#X connect 7 0 24 0;
#X connect 8 0 9 0;
#X connect 9 0 10 0;
#X connect 10 0 8 1;
#X connect 10 0 13 1;
#X connect 10 0 20 1;
#X connect 12 0 8 0;
#X connect 12 1 10 1;
#X connect 12 2 13 0;
#X connect 13 0 14 0;
#X connect 14 1 15 0;
#X connect 16 0 17 0;
#X connect 17 0 18 0;
#X connect 19 0 20 0;
#X connect 19 1 12 0;
#X connect 20 0 21 0;
#X connect 21 0 28 0;
#X connect 22 0 1 0;
#X connect 23 0 3 0;
#X connect 25 0 2 0;
#X connect 27 0 19 0;
#X restore 21 36 pd singleton-communication;
#X obj 60 135 inlet~;
#X text 15 289 copyright by Roman Haefeli;
#X text 15 310 published under the GNU Public License;
#X msg 19 243 version 0.2.0;
#X text 15 268 Tags: #Audio \, #Oscillator;
#X connect 0 0 3 0;
#X connect 1 0 0 0;
#X connect 2 0 0 2;
#X connect 7 0 0 1;
