#N canvas 290 160 756 655 12;
#X obj 248 453 outlet~;
#X obj 248 336 *~;
#X obj 266 264 cos;
#X msg 266 288 \$1 50;
#X obj 266 312 line~;
#X obj 358 336 *~;
#X msg 376 288 \$1 50;
#X obj 376 312 line~;
#X obj 376 264 sin;
#X obj 466 226 * 1.5708;
#X obj 247 148 inlet~;
#X obj 358 148 inlet~;
#X obj 466 148 inlet;
#X connect 1 0 0 0;
#X connect 2 0 3 0;
#X connect 3 0 4 0;
#X connect 4 0 1 1;
#X connect 5 0 0 0;
#X connect 6 0 7 0;
#X connect 7 0 5 1;
#X connect 8 0 6 0;
#X connect 9 0 2 0;
#X connect 9 0 8 0;
#X connect 10 0 1 0;
#X connect 11 0 5 0;
#X connect 12 0 9 0;
