#N canvas 546 177 491 498 10;
#N canvas 0 23 450 574 lpf2 0;
#X obj -13 228 +~ 1;
#X obj -65 252 *~ -2;
#X obj -65 279 /~;
#X obj -65 305 *~ -1;
#X obj -182 151 sig~ 1;
#X obj -38 228 -~;
#X obj -28 278 /~;
#X obj -65 332 *~;
#X obj -65 356 +~;
#X obj -155 457 *~ 0.5;
#X obj -65 403 sqrt~;
#X obj -65 381 abs~;
#X obj -65 429 *~ 0.5;
#X obj -197 485 cpole~;
#X obj -197 513 cpole~;
#X obj -65 457 *~ -1;
#X obj -197 429 czero~;
#X obj -197 457 czero~;
#X obj -182 356 /~;
#X obj -197 381 *~;
#X obj -182 305 -~;
#X obj -182 332 *~ 0.5;
#X obj -175 403 sig~ -1;
#X obj -28 305 *~ -4;
#X obj -65 151 cos~;
#X obj -23 151 -~ 0.25;
#X obj -23 173 cos~;
#X obj -197 5 inlet~;
#X obj -197 541 outlet~;
#X obj -23 204 /~;
#X obj -65 5 inlet~;
#X obj 58 5 inlet~;
#X obj 58 125 +~ 100;
#X obj 58 151 dbtorms~;
#X obj 58 100 *~ 25;
#X obj 131 5 inlet;
#X obj 131 100 == 0;
#X obj 131 125 switch~;
#X obj 201 5 inlet;
#X connect 0 0 2 1;
#X connect 0 0 6 1;
#X connect 0 0 18 1;
#X connect 1 0 2 0;
#X connect 2 0 3 0;
#X connect 3 0 7 0;
#X connect 3 0 7 1;
#X connect 3 0 9 0;
#X connect 4 0 5 0;
#X connect 4 0 20 0;
#X connect 5 0 6 0;
#X connect 6 0 23 0;
#X connect 7 0 8 0;
#X connect 8 0 11 0;
#X connect 9 0 13 2;
#X connect 9 0 14 2;
#X connect 10 0 12 0;
#X connect 11 0 10 0;
#X connect 12 0 13 3;
#X connect 12 0 15 0;
#X connect 13 0 14 0;
#X connect 13 1 14 1;
#X connect 14 0 28 0;
#X connect 15 0 14 3;
#X connect 16 0 17 0;
#X connect 16 1 17 1;
#X connect 17 0 13 0;
#X connect 17 1 13 1;
#X connect 18 0 19 1;
#X connect 19 0 16 0;
#X connect 20 0 21 0;
#X connect 21 0 18 0;
#X connect 22 0 16 2;
#X connect 22 0 17 2;
#X connect 23 0 8 1;
#X connect 24 0 1 0;
#X connect 24 0 20 1;
#X connect 25 0 26 0;
#X connect 26 0 29 0;
#X connect 27 0 19 0;
#X connect 29 0 0 0;
#X connect 29 0 5 1;
#X connect 30 0 24 0;
#X connect 30 0 25 0;
#X connect 31 0 34 0;
#X connect 32 0 33 0;
#X connect 33 0 29 1;
#X connect 34 0 32 0;
#X connect 35 0 36 0;
#X connect 36 0 37 0;
#X connect 38 0 16 0;
#X connect 38 0 17 0;
#X connect 38 0 13 0;
#X connect 38 0 14 0;
#X restore 8 286 pd lpf2;
#N canvas 0 23 452 572 bpf2 0;
#X obj -13 228 +~ 1;
#X obj -65 252 *~ -2;
#X obj -65 279 /~;
#X obj -65 305 *~ -1;
#X obj -175 151 sig~ 1;
#X obj -38 228 -~;
#X obj -28 278 /~;
#X obj -65 332 *~;
#X obj -65 356 +~;
#X obj -155 457 *~ 0.5;
#X obj -65 403 sqrt~;
#X obj -65 381 abs~;
#X obj -65 429 *~ 0.5;
#X obj -197 485 cpole~;
#X obj -197 513 cpole~;
#X obj -65 457 *~ -1;
#X obj -197 429 czero~;
#X obj -197 457 czero~;
#X obj -182 356 /~;
#X obj -197 381 *~;
#X obj -182 332 *~ 0.5;
#X obj -175 403 sig~ -1;
#X obj -28 305 *~ -4;
#X obj -65 151 cos~;
#X obj -23 151 -~ 0.25;
#X obj -23 173 cos~;
#X obj -197 5 inlet~;
#X obj -197 541 outlet~;
#X obj 58 125 +~ 100;
#X obj 58 151 dbtorms~;
#X obj -23 204 /~;
#X obj 58 100 *~ 25;
#X obj -65 5 inlet~;
#X obj 58 5 inlet~;
#X obj 131 5 inlet;
#X obj 131 125 switch~;
#X obj 131 100 == 1;
#X obj 201 5 inlet;
#X connect 0 0 2 1;
#X connect 0 0 6 1;
#X connect 0 0 18 1;
#X connect 1 0 2 0;
#X connect 2 0 3 0;
#X connect 3 0 7 0;
#X connect 3 0 7 1;
#X connect 3 0 9 0;
#X connect 4 0 5 0;
#X connect 4 0 16 2;
#X connect 5 0 6 0;
#X connect 6 0 22 0;
#X connect 7 0 8 0;
#X connect 8 0 11 0;
#X connect 9 0 13 2;
#X connect 9 0 14 2;
#X connect 10 0 12 0;
#X connect 11 0 10 0;
#X connect 12 0 13 3;
#X connect 12 0 15 0;
#X connect 13 0 14 0;
#X connect 13 1 14 1;
#X connect 14 0 27 0;
#X connect 15 0 14 3;
#X connect 16 0 17 0;
#X connect 16 1 17 1;
#X connect 17 0 13 0;
#X connect 17 1 13 1;
#X connect 18 0 19 1;
#X connect 19 0 16 0;
#X connect 20 0 18 0;
#X connect 21 0 17 2;
#X connect 22 0 8 1;
#X connect 23 0 1 0;
#X connect 24 0 25 0;
#X connect 25 0 20 0;
#X connect 25 0 30 0;
#X connect 26 0 19 0;
#X connect 28 0 29 0;
#X connect 29 0 30 1;
#X connect 30 0 0 0;
#X connect 30 0 5 1;
#X connect 31 0 28 0;
#X connect 32 0 23 0;
#X connect 32 0 24 0;
#X connect 33 0 31 0;
#X connect 34 0 36 0;
#X connect 36 0 35 0;
#X connect 37 0 16 0;
#X connect 37 0 17 0;
#X connect 37 0 13 0;
#X connect 37 0 14 0;
#X restore 58 286 pd bpf2;
#N canvas 0 23 453 573 hpf2 0;
#X obj -13 228 +~ 1;
#X obj -65 252 *~ -2;
#X obj -65 279 /~;
#X obj -65 305 *~ -1;
#X obj -182 151 sig~ 1;
#X obj -38 228 -~;
#X obj -28 278 /~;
#X obj -65 332 *~;
#X obj -65 356 +~;
#X obj -155 457 *~ 0.5;
#X obj -65 403 sqrt~;
#X obj -65 381 abs~;
#X obj -65 429 *~ 0.5;
#X obj -197 485 cpole~;
#X obj -197 513 cpole~;
#X obj -65 457 *~ -1;
#X obj -197 429 czero~;
#X obj -197 457 czero~;
#X obj -182 356 /~;
#X obj -197 381 *~;
#X obj -182 252 -~;
#X obj -182 332 *~ 0.5;
#X obj -28 305 *~ -4;
#X obj -65 151 cos~;
#X obj -23 151 -~ 0.25;
#X obj -23 173 cos~;
#X obj -197 5 inlet~;
#X obj -197 541 outlet~;
#X obj -167 228 *~ -1;
#X obj 58 125 +~ 100;
#X obj 58 151 dbtorms~;
#X obj -23 204 /~;
#X obj 58 100 *~ 25;
#X obj -65 5 inlet~;
#X obj 58 5 inlet~;
#X obj 131 5 inlet;
#X obj 131 125 switch~;
#X obj 131 100 == 2;
#X obj 201 5 inlet;
#X connect 0 0 2 1;
#X connect 0 0 6 1;
#X connect 0 0 18 1;
#X connect 1 0 2 0;
#X connect 2 0 3 0;
#X connect 3 0 7 0;
#X connect 3 0 7 1;
#X connect 3 0 9 0;
#X connect 4 0 5 0;
#X connect 4 0 20 0;
#X connect 4 0 17 2;
#X connect 4 0 16 2;
#X connect 5 0 6 0;
#X connect 6 0 22 0;
#X connect 7 0 8 0;
#X connect 8 0 11 0;
#X connect 9 0 13 2;
#X connect 9 0 14 2;
#X connect 10 0 12 0;
#X connect 11 0 10 0;
#X connect 12 0 13 3;
#X connect 12 0 15 0;
#X connect 13 0 14 0;
#X connect 13 1 14 1;
#X connect 14 0 27 0;
#X connect 15 0 14 3;
#X connect 16 0 17 0;
#X connect 16 1 17 1;
#X connect 17 0 13 0;
#X connect 17 1 13 1;
#X connect 18 0 19 1;
#X connect 19 0 16 0;
#X connect 20 0 21 0;
#X connect 21 0 18 0;
#X connect 22 0 8 1;
#X connect 23 0 1 0;
#X connect 23 0 28 0;
#X connect 24 0 25 0;
#X connect 25 0 31 0;
#X connect 26 0 19 0;
#X connect 28 0 20 1;
#X connect 29 0 30 0;
#X connect 30 0 31 1;
#X connect 31 0 0 0;
#X connect 31 0 5 1;
#X connect 32 0 29 0;
#X connect 33 0 23 0;
#X connect 33 0 24 0;
#X connect 34 0 32 0;
#X connect 35 0 37 0;
#X connect 37 0 36 0;
#X connect 38 0 16 0;
#X connect 38 0 17 0;
#X connect 38 0 13 0;
#X connect 38 0 14 0;
#X restore 108 286 pd hpf2;
#N canvas 0 23 450 703 lpf4 0;
#X obj -13 228 +~ 1;
#X obj -65 252 *~ -2;
#X obj -65 279 /~;
#X obj -65 305 *~ -1;
#X obj -182 151 sig~ 1;
#X obj -38 228 -~;
#X obj -28 278 /~;
#X obj -65 332 *~;
#X obj -65 356 +~;
#X obj -155 457 *~ 0.5;
#X obj -65 403 sqrt~;
#X obj -65 381 abs~;
#X obj -65 429 *~ 0.5;
#X obj -197 485 cpole~;
#X obj -197 513 cpole~;
#X obj -65 457 *~ -1;
#X obj -197 429 czero~;
#X obj -197 457 czero~;
#X obj -182 356 /~;
#X obj -197 381 *~;
#X obj -182 305 -~;
#X obj -182 332 *~ 0.5;
#X obj -175 403 sig~ -1;
#X obj -28 305 *~ -4;
#X obj -65 151 cos~;
#X obj -23 151 -~ 0.25;
#X obj -23 173 cos~;
#X obj -197 5 inlet~;
#X obj -197 671 outlet~;
#X obj 58 125 +~ 100;
#X obj 58 151 dbtorms~;
#X obj -23 204 /~;
#X obj -197 539 *~;
#X obj -197 618 cpole~;
#X obj -197 646 cpole~;
#X obj -197 562 czero~;
#X obj -197 590 czero~;
#X obj 58 100 *~ 15;
#X obj -65 5 inlet~;
#X obj 58 5 inlet~;
#X obj 131 5 inlet;
#X obj 131 125 switch~;
#X obj 131 100 == 3;
#X obj 201 5 inlet;
#X connect 0 0 2 1;
#X connect 0 0 6 1;
#X connect 0 0 18 1;
#X connect 1 0 2 0;
#X connect 2 0 3 0;
#X connect 3 0 7 0;
#X connect 3 0 7 1;
#X connect 3 0 9 0;
#X connect 4 0 5 0;
#X connect 4 0 20 0;
#X connect 5 0 6 0;
#X connect 6 0 23 0;
#X connect 7 0 8 0;
#X connect 8 0 11 0;
#X connect 9 0 13 2;
#X connect 9 0 14 2;
#X connect 9 0 33 2;
#X connect 9 0 34 2;
#X connect 10 0 12 0;
#X connect 11 0 10 0;
#X connect 12 0 13 3;
#X connect 12 0 15 0;
#X connect 12 0 33 3;
#X connect 13 0 14 0;
#X connect 13 1 14 1;
#X connect 14 0 32 0;
#X connect 15 0 14 3;
#X connect 15 0 34 3;
#X connect 16 0 17 0;
#X connect 16 1 17 1;
#X connect 17 0 13 0;
#X connect 17 1 13 1;
#X connect 18 0 19 1;
#X connect 18 0 32 1;
#X connect 19 0 16 0;
#X connect 20 0 21 0;
#X connect 21 0 18 0;
#X connect 22 0 16 2;
#X connect 22 0 17 2;
#X connect 22 0 35 2;
#X connect 22 0 36 2;
#X connect 23 0 8 1;
#X connect 24 0 1 0;
#X connect 24 0 20 1;
#X connect 25 0 26 0;
#X connect 26 0 31 0;
#X connect 27 0 19 0;
#X connect 29 0 30 0;
#X connect 30 0 31 1;
#X connect 31 0 0 0;
#X connect 31 0 5 1;
#X connect 32 0 35 0;
#X connect 33 0 34 0;
#X connect 33 1 34 1;
#X connect 34 0 28 0;
#X connect 35 0 36 0;
#X connect 35 1 36 1;
#X connect 36 0 33 0;
#X connect 36 1 33 1;
#X connect 37 0 29 0;
#X connect 38 0 24 0;
#X connect 38 0 25 0;
#X connect 39 0 37 0;
#X connect 40 0 42 0;
#X connect 42 0 41 0;
#X connect 43 0 16 0;
#X connect 43 0 17 0;
#X connect 43 0 13 0;
#X connect 43 0 14 0;
#X connect 43 0 35 0;
#X connect 43 0 36 0;
#X connect 43 0 33 0;
#X connect 43 0 34 0;
#X restore 158 286 pd lpf4;
#N canvas 0 23 448 714 bpf4 0;
#X obj -13 228 +~ 1;
#X obj -65 252 *~ -2;
#X obj -65 279 /~;
#X obj -65 305 *~ -1;
#X obj -175 151 sig~ 1;
#X obj -38 228 -~;
#X obj -28 278 /~;
#X obj -65 332 *~;
#X obj -65 356 +~;
#X obj -155 457 *~ 0.5;
#X obj -65 403 sqrt~;
#X obj -65 381 abs~;
#X obj -65 429 *~ 0.5;
#X obj -197 485 cpole~;
#X obj -197 513 cpole~;
#X obj -65 457 *~ -1;
#X obj -197 429 czero~;
#X obj -197 457 czero~;
#X obj -182 356 /~;
#X obj -197 381 *~;
#X obj -182 332 *~ 0.5;
#X obj -175 403 sig~ -1;
#X obj -28 305 *~ -4;
#X obj -65 151 cos~;
#X obj -23 151 -~ 0.25;
#X obj -23 173 cos~;
#X obj -197 5 inlet~;
#X obj -197 681 outlet~;
#X obj 58 125 +~ 100;
#X obj 58 151 dbtorms~;
#X obj -23 204 /~;
#X obj -197 541 *~;
#X obj -197 625 cpole~;
#X obj -197 653 cpole~;
#X obj -197 569 czero~;
#X obj -197 597 czero~;
#X obj 58 100 *~ 15;
#X obj -65 5 inlet~;
#X obj 58 5 inlet~;
#X obj 131 5 inlet;
#X obj 131 125 switch~;
#X obj 131 100 == 4;
#X obj 201 5 inlet;
#X connect 0 0 2 1;
#X connect 0 0 6 1;
#X connect 0 0 18 1;
#X connect 1 0 2 0;
#X connect 2 0 3 0;
#X connect 3 0 7 0;
#X connect 3 0 7 1;
#X connect 3 0 9 0;
#X connect 4 0 5 0;
#X connect 4 0 16 2;
#X connect 4 0 34 2;
#X connect 5 0 6 0;
#X connect 6 0 22 0;
#X connect 7 0 8 0;
#X connect 8 0 11 0;
#X connect 9 0 13 2;
#X connect 9 0 14 2;
#X connect 9 0 32 2;
#X connect 9 0 33 2;
#X connect 10 0 12 0;
#X connect 11 0 10 0;
#X connect 12 0 13 3;
#X connect 12 0 15 0;
#X connect 12 0 32 3;
#X connect 13 0 14 0;
#X connect 13 1 14 1;
#X connect 14 0 31 0;
#X connect 15 0 14 3;
#X connect 15 0 33 3;
#X connect 16 0 17 0;
#X connect 16 1 17 1;
#X connect 17 0 13 0;
#X connect 17 1 13 1;
#X connect 18 0 19 1;
#X connect 18 0 31 1;
#X connect 19 0 16 0;
#X connect 20 0 18 0;
#X connect 21 0 17 2;
#X connect 21 0 35 2;
#X connect 22 0 8 1;
#X connect 23 0 1 0;
#X connect 24 0 25 0;
#X connect 25 0 20 0;
#X connect 25 0 30 0;
#X connect 26 0 19 0;
#X connect 28 0 29 0;
#X connect 29 0 30 1;
#X connect 30 0 0 0;
#X connect 30 0 5 1;
#X connect 31 0 34 0;
#X connect 32 0 33 0;
#X connect 32 1 33 1;
#X connect 33 0 27 0;
#X connect 34 0 35 0;
#X connect 34 1 35 1;
#X connect 35 0 32 0;
#X connect 35 1 32 1;
#X connect 36 0 28 0;
#X connect 37 0 23 0;
#X connect 37 0 24 0;
#X connect 38 0 36 0;
#X connect 39 0 41 0;
#X connect 41 0 40 0;
#X connect 42 0 16 0;
#X connect 42 0 17 0;
#X connect 42 0 13 0;
#X connect 42 0 14 0;
#X connect 42 0 34 0;
#X connect 42 0 35 0;
#X connect 42 0 32 0;
#X connect 42 0 33 0;
#X restore 208 286 pd bpf4;
#N canvas 0 23 451 720 hpf4 0;
#X obj -13 228 +~ 1;
#X obj -65 252 *~ -2;
#X obj -65 279 /~;
#X obj -65 305 *~ -1;
#X obj -182 151 sig~ 1;
#X obj -38 228 -~;
#X obj -28 278 /~;
#X obj -65 332 *~;
#X obj -65 356 +~;
#X obj -155 457 *~ 0.5;
#X obj -65 403 sqrt~;
#X obj -65 381 abs~;
#X obj -65 429 *~ 0.5;
#X obj -197 485 cpole~;
#X obj -197 513 cpole~;
#X obj -65 457 *~ -1;
#X obj -197 429 czero~;
#X obj -197 457 czero~;
#X obj -182 356 /~;
#X obj -197 381 *~;
#X obj -182 252 -~;
#X obj -182 332 *~ 0.5;
#X obj -28 305 *~ -4;
#X obj -65 151 cos~;
#X obj -23 151 -~ 0.25;
#X obj -23 173 cos~;
#X obj -197 5 inlet~;
#X obj -197 689 outlet~;
#X obj -167 228 *~ -1;
#X obj 58 125 +~ 100;
#X obj 58 151 dbtorms~;
#X obj -23 204 /~;
#X obj -197 541 *~;
#X obj -197 625 cpole~;
#X obj -197 653 cpole~;
#X obj -197 569 czero~;
#X obj -197 597 czero~;
#X obj 58 100 *~ 15;
#X obj -65 5 inlet~;
#X obj 58 5 inlet~;
#X obj 131 5 inlet;
#X obj 131 125 switch~;
#X obj 131 100 == 5;
#X obj 201 5 inlet;
#X connect 0 0 2 1;
#X connect 0 0 6 1;
#X connect 0 0 18 1;
#X connect 1 0 2 0;
#X connect 2 0 3 0;
#X connect 3 0 7 0;
#X connect 3 0 7 1;
#X connect 3 0 9 0;
#X connect 4 0 5 0;
#X connect 4 0 20 0;
#X connect 4 0 17 2;
#X connect 4 0 16 2;
#X connect 4 0 35 2;
#X connect 4 0 36 2;
#X connect 5 0 6 0;
#X connect 6 0 22 0;
#X connect 7 0 8 0;
#X connect 8 0 11 0;
#X connect 9 0 13 2;
#X connect 9 0 14 2;
#X connect 9 0 33 2;
#X connect 9 0 34 2;
#X connect 10 0 12 0;
#X connect 11 0 10 0;
#X connect 12 0 13 3;
#X connect 12 0 15 0;
#X connect 12 0 33 3;
#X connect 13 0 14 0;
#X connect 13 1 14 1;
#X connect 14 0 32 0;
#X connect 15 0 14 3;
#X connect 15 0 34 3;
#X connect 16 0 17 0;
#X connect 16 1 17 1;
#X connect 17 0 13 0;
#X connect 17 1 13 1;
#X connect 18 0 19 1;
#X connect 18 0 32 1;
#X connect 19 0 16 0;
#X connect 20 0 21 0;
#X connect 21 0 18 0;
#X connect 22 0 8 1;
#X connect 23 0 1 0;
#X connect 23 0 28 0;
#X connect 24 0 25 0;
#X connect 25 0 31 0;
#X connect 26 0 19 0;
#X connect 28 0 20 1;
#X connect 29 0 30 0;
#X connect 30 0 31 1;
#X connect 31 0 0 0;
#X connect 31 0 5 1;
#X connect 32 0 35 0;
#X connect 33 0 34 0;
#X connect 33 1 34 1;
#X connect 34 0 27 0;
#X connect 35 0 36 0;
#X connect 35 1 36 1;
#X connect 36 0 33 0;
#X connect 36 1 33 1;
#X connect 37 0 29 0;
#X connect 38 0 23 0;
#X connect 38 0 24 0;
#X connect 39 0 37 0;
#X connect 40 0 42 0;
#X connect 42 0 41 0;
#X connect 43 0 16 0;
#X connect 43 0 17 0;
#X connect 43 0 13 0;
#X connect 43 0 14 0;
#X connect 43 0 35 0;
#X connect 43 0 36 0;
#X connect 43 0 33 0;
#X connect 43 0 34 0;
#X restore 258 286 pd hpf4;
#X obj 137 85 samplerate~;
#X obj 137 64 loadbang;
#X obj 92 157 /~ 44100;
#X obj 92 8 inlet~ cutoff;
#X obj 92 133 clip~ 20 22050;
#X obj 215 8 inlet~ resonance;
#X obj 215 109 clip~ 0 1;
#X obj 8 8 inlet~;
#X obj 334 8 inlet mode;
#X obj 135 378 outlet~;
#X obj 280 197 t f b;
#X msg 307 225 clear;
#X obj 299 107 i;
#X obj 299 155 change -1;
#X obj 299 83 * 6;
#X obj 299 131 min 5;
#X obj 173 109 * 0.49;
#X connect 0 0 15 0;
#X connect 1 0 15 0;
#X connect 2 0 15 0;
#X connect 3 0 15 0;
#X connect 4 0 15 0;
#X connect 5 0 15 0;
#X connect 6 0 8 1;
#X connect 6 0 22 0;
#X connect 7 0 6 0;
#X connect 8 0 0 1;
#X connect 8 0 1 1;
#X connect 8 0 2 1;
#X connect 8 0 3 1;
#X connect 8 0 4 1;
#X connect 8 0 5 1;
#X connect 9 0 10 0;
#X connect 10 0 8 0;
#X connect 11 0 12 0;
#X connect 12 0 0 2;
#X connect 12 0 1 2;
#X connect 12 0 2 2;
#X connect 12 0 3 2;
#X connect 12 0 4 2;
#X connect 12 0 5 2;
#X connect 13 0 0 0;
#X connect 13 0 1 0;
#X connect 13 0 2 0;
#X connect 13 0 3 0;
#X connect 13 0 4 0;
#X connect 13 0 5 0;
#X connect 14 0 20 0;
#X connect 16 0 0 3;
#X connect 16 0 1 3;
#X connect 16 0 2 3;
#X connect 16 0 3 3;
#X connect 16 0 4 3;
#X connect 16 0 5 3;
#X connect 16 1 17 0;
#X connect 17 0 0 4;
#X connect 17 0 1 4;
#X connect 17 0 2 4;
#X connect 17 0 3 4;
#X connect 17 0 4 4;
#X connect 17 0 5 4;
#X connect 18 0 21 0;
#X connect 19 0 16 0;
#X connect 20 0 18 0;
#X connect 21 0 19 0;
#X connect 22 0 10 2;
