#N canvas 308 121 925 536 12;
#X obj 200 139 s \$0-OSC1;
#X obj 443 140 s \$0-OCT2;
#X obj 527 141 s \$0-MIX;
#X obj 671 140 s \$0-FMA;
#X obj 601 142 s \$0-FMR;
#X obj 203 217 s \$0-FLT;
#X obj 283 216 s \$0-FCUT;
#X obj 367 215 s \$0-FRES;
#X obj 451 214 s \$0-FENV;
#X obj 528 213 s \$0-FATT;
#X obj 604 213 s \$0-FDEC;
#X obj 680 213 s \$0-AATT;
#X obj 752 214 s \$0-ADEC;
#X obj 744 141 s \$0-VOL;
#X obj 282 138 s \$0-OSC2;
#X obj 361 140 s \$0-OCT1;
#X obj 69 301 f;
#X obj 102 301 + 1;
#X obj 69 324 % 8;
#X obj 69 277 t b f;
#X obj 69 347 pack f f;
#X obj 69 252 r \$0-note;
#X obj 69 373 clone synth 8 \$0;
#N canvas 273 114 912 387 initParams 0;
#X obj 117 143 s \$0-OSC1;
#X obj 360 144 s \$0-OCT2;
#X obj 444 145 s \$0-MIX;
#X obj 588 144 s \$0-FMA;
#X obj 518 146 s \$0-FMR;
#X obj 120 221 s \$0-FLT;
#X obj 200 220 s \$0-FCUT;
#X obj 284 219 s \$0-FRES;
#X obj 368 218 s \$0-FENV;
#X obj 445 217 s \$0-FATT;
#X obj 521 217 s \$0-FDEC;
#X obj 597 217 s \$0-AATT;
#X obj 669 218 s \$0-ADEC;
#X obj 661 145 s \$0-VOL;
#X obj 199 142 s \$0-OSC2;
#X obj 278 144 s \$0-OCT1;
#X obj 117 113 0.3;
#X obj 199 112 0.3;
#X obj 278 114 0.5;
#X obj 360 114 0.5;
#X obj 444 115 0.5;
#X obj 518 116 0;
#X obj 588 114 0;
#X obj 661 115 0.5;
#X obj 120 191 0;
#X obj 200 190 0.5;
#X obj 284 189 0;
#X obj 368 188 1;
#X obj 445 187 0;
#X obj 597 187 0;
#X obj 354 76 loadbang;
#X obj 521 187 0.5;
#X obj 669 188 0.5;
#X connect 16 0 0 0;
#X connect 17 0 14 0;
#X connect 18 0 15 0;
#X connect 19 0 1 0;
#X connect 20 0 2 0;
#X connect 21 0 4 0;
#X connect 22 0 3 0;
#X connect 23 0 13 0;
#X connect 24 0 5 0;
#X connect 25 0 6 0;
#X connect 26 0 7 0;
#X connect 27 0 8 0;
#X connect 28 0 9 0;
#X connect 29 0 11 0;
#X connect 30 0 16 0;
#X connect 30 0 17 0;
#X connect 30 0 18 0;
#X connect 30 0 19 0;
#X connect 30 0 20 0;
#X connect 30 0 21 0;
#X connect 30 0 22 0;
#X connect 30 0 23 0;
#X connect 30 0 24 0;
#X connect 30 0 25 0;
#X connect 30 0 26 0;
#X connect 30 0 27 0;
#X connect 30 0 28 0;
#X connect 30 0 29 0;
#X connect 30 0 31 0;
#X connect 30 0 32 0;
#X connect 31 0 10 0;
#X connect 32 0 12 0;
#X restore 205 254 pd initParams;
#X obj 204 343 catch~ \$0-left;
#X obj 318 344 catch~ \$0-right;
#X obj 256 418 dac~ 1 2;
#X obj 70 136 s \$0-note;
#X obj 70 110 r note;
#X obj 200 109 r knob0;
#X obj 282 108 r knob1;
#X obj 361 110 r knob2;
#X obj 443 110 r knob3;
#X obj 527 111 r knob4;
#X obj 601 112 r knob5;
#X obj 671 110 r knob6;
#X obj 744 111 r knob7;
#X obj 203 187 r knob8;
#X obj 283 186 r knob9;
#X obj 367 185 r knob10;
#X obj 451 184 r knob11;
#X obj 528 183 r knob12;
#X obj 604 183 r knob13;
#X obj 680 183 r knob14;
#X obj 752 184 r knob15;
#X obj 204 373 *~ 0.1;
#X obj 316 372 *~ 0.1;
#X connect 16 0 18 0;
#X connect 17 0 16 1;
#X connect 18 0 17 0;
#X connect 18 0 20 0;
#X connect 19 0 16 0;
#X connect 19 1 20 1;
#X connect 20 0 22 0;
#X connect 21 0 19 0;
#X connect 24 0 45 0;
#X connect 25 0 46 0;
#X connect 28 0 27 0;
#X connect 29 0 0 0;
#X connect 30 0 14 0;
#X connect 31 0 15 0;
#X connect 32 0 1 0;
#X connect 33 0 2 0;
#X connect 34 0 4 0;
#X connect 35 0 3 0;
#X connect 36 0 13 0;
#X connect 37 0 5 0;
#X connect 38 0 6 0;
#X connect 39 0 7 0;
#X connect 40 0 8 0;
#X connect 41 0 9 0;
#X connect 42 0 10 0;
#X connect 43 0 11 0;
#X connect 44 0 12 0;
#X connect 45 0 26 0;
#X connect 46 0 26 1;
