#N canvas 0 210 756 655 12;
#X obj 404 147 i;
#N canvas 679 424 450 382 sine 0;
#X obj 278 136 == 0;
#X obj 278 160 switch~;
#X obj 57 160 outlet~;
#X obj 57 112 inlet~;
#X obj 278 112 r \$0-selected;
#X obj 57 136 osc~;
#X connect 0 0 1 0;
#X connect 3 0 5 0;
#X connect 4 0 0 0;
#X connect 5 0 2 0;
#X restore 32 370 pd sine;
#X obj 290 537 outlet~;
#N canvas 679 424 450 382 triangle 0;
#X obj 278 160 switch~;
#X obj 57 160 outlet~;
#X obj 57 112 inlet~;
#X obj 278 136 == 1;
#X obj 278 112 r \$0-selected;
#X obj 57 136 bltriangle~ 20;
#X connect 2 0 5 0;
#X connect 3 0 0 0;
#X connect 4 0 3 0;
#X connect 5 0 1 0;
#X restore 100 370 pd triangle;
#N canvas 679 424 450 382 saw 0;
#X obj 278 160 switch~;
#X obj 57 160 outlet~;
#X obj 57 112 inlet~;
#X obj 278 136 == 2;
#X obj 278 112 r \$0-selected;
#X obj 57 136 blsaw~ 40;
#X connect 2 0 5 0;
#X connect 3 0 0 0;
#X connect 4 0 3 0;
#X connect 5 0 1 0;
#X restore 192 370 pd saw;
#N canvas 679 424 450 382 square 0;
#X obj 278 160 switch~;
#X obj 57 160 outlet~;
#X obj 57 112 inlet~;
#X obj 278 136 == 3;
#X obj 278 112 r \$0-selected;
#X obj 57 136 blsquare~ 20;
#X connect 2 0 5 0;
#X connect 3 0 0 0;
#X connect 4 0 3 0;
#X connect 5 0 1 0;
#X restore 252 370 pd square;
#N canvas 679 424 450 382 hpulse 0;
#X obj 278 160 switch~;
#X obj 57 160 outlet~;
#X obj 57 112 inlet~;
#X obj 117 112 sig~ 0.504;
#X obj 278 136 == 4;
#X obj 278 112 r \$0-selected;
#X obj 57 136 blpulse~ 40;
#X connect 2 0 6 0;
#X connect 3 0 6 1;
#X connect 4 0 0 0;
#X connect 5 0 4 0;
#X connect 6 0 1 0;
#X restore 332 370 pd hpulse;
#N canvas 679 424 450 382 qpulse 0;
#X obj 278 160 switch~;
#X obj 57 160 outlet~;
#X obj 57 112 inlet~;
#X obj 278 136 == 5;
#X obj 117 112 sig~ 0.744;
#X obj 278 112 r \$0-selected;
#X obj 57 136 blpulse~ 40;
#X connect 2 0 6 0;
#X connect 3 0 0 0;
#X connect 4 0 6 1;
#X connect 5 0 3 0;
#X connect 6 0 1 0;
#X restore 412 370 pd qpulse;
#N canvas 679 424 450 382 noise 0;
#X obj 278 160 switch~;
#X obj 57 160 outlet~;
#X obj 57 136 noise~;
#X obj 278 136 == 6;
#X obj 278 112 r \$0-selected;
#X connect 2 0 1 0;
#X connect 3 0 0 0;
#X connect 4 0 3 0;
#X restore 492 370 pd noise;
#X obj 544 147 i;
#X obj 404 123 * 7;
#X obj 404 171 min 6;
#X obj 544 123 * 7;
#X obj 544 171 min 6;
#X obj 544 195 - 3;
#X obj 544 219 * 12;
#X obj 219 278 mtof~;
#X obj 219 254 +~ 0;
#X obj 544 243 s \$0-octave;
#X obj 404 219 s \$0-selected;
#X obj 244 230 r \$0-octave;
#X obj 219 98 inlet~ pitch;
#X obj 544 98 inlet oct;
#X obj 404 98 inlet mode;
#X obj 404 195 change -1;
#X connect 0 0 11 0;
#X connect 1 0 2 0;
#X connect 3 0 2 0;
#X connect 4 0 2 0;
#X connect 5 0 2 0;
#X connect 6 0 2 0;
#X connect 7 0 2 0;
#X connect 8 0 2 0;
#X connect 9 0 13 0;
#X connect 10 0 0 0;
#X connect 11 0 24 0;
#X connect 12 0 9 0;
#X connect 13 0 14 0;
#X connect 14 0 15 0;
#X connect 15 0 18 0;
#X connect 16 0 1 0;
#X connect 16 0 3 0;
#X connect 16 0 4 0;
#X connect 16 0 5 0;
#X connect 16 0 6 0;
#X connect 16 0 7 0;
#X connect 17 0 16 0;
#X connect 20 0 17 1;
#X connect 21 0 17 0;
#X connect 22 0 12 0;
#X connect 23 0 10 0;
#X connect 24 0 19 0;
