#N canvas 336 23 1104 828 12;
#X obj 263 235 osc~;
#X obj 263 261 *~ 0;
#X obj 263 419 oscpack~;
#X obj 393 419 oscpack~;
#X obj 263 211 * 2093;
#X obj 355 235 * 262;
#X obj 263 286 *~ 0;
#X obj 307 236 != 0;
#X obj 263 313 +~ 0;
#X obj 311 808 filterpack~;
#X obj 506 565 * 100;
#X obj 506 589 + 20;
#X obj 333 604 ad~;
#X obj 263 117 s \$0-trigger;
#X obj 295 91 s \$0-note;
#X obj 262 67 t b f;
#X obj 302 287 r \$0-note;
#X obj 333 541 r \$0-trigger;
#X obj 335 730 +~ 0;
#X obj 335 754 mtof~;
#X obj 376 654 * 120;
#X obj 334 686 *~ 0;
#X obj 313 1075 *~;
#X obj 413 907 ad~;
#X obj 413 844 r \$0-trigger;
#X obj 414 1019 *~;
#X msg 458 970 \$1 10;
#X obj 458 994 line~;
#X obj 310 500 crossfade~;
#X obj 258 1113 throw~ \$2-left;
#X obj 372 1114 throw~ \$2-right;
#X obj 263 182 pow 4;
#X obj 354 208 pow 4;
#X obj 458 945 * 2;
#X obj 263 157 r \$2-FMR;
#X obj 353 182 r \$2-FMA;
#X obj 286 370 r \$2-OSC1;
#X obj 309 394 r \$2-OCT1;
#X obj 416 370 r \$2-OSC2;
#X obj 439 394 r \$2-OCT2;
#X obj 384 474 r \$2-MIX;
#X obj 349 567 r \$2-FATT;
#X obj 423 568 r \$2-FDEC;
#X obj 506 541 r \$2-FCUT;
#X obj 376 630 r \$2-FENV;
#X obj 361 782 r \$2-FRES;
#X obj 436 781 r \$2-FLT;
#X obj 429 870 r \$2-AATT;
#X obj 503 871 r \$2-ADEC;
#X obj 458 921 r \$2-VOL;
#X obj 261 35 inlet note;
#X connect 0 0 1 0;
#X connect 1 0 6 0;
#X connect 2 0 28 0;
#X connect 3 0 28 1;
#X connect 4 0 0 0;
#X connect 4 0 7 0;
#X connect 5 0 1 1;
#X connect 6 0 8 0;
#X connect 7 0 6 1;
#X connect 8 0 2 0;
#X connect 8 0 3 0;
#X connect 9 0 22 0;
#X connect 10 0 11 0;
#X connect 11 0 18 1;
#X connect 12 0 21 0;
#X connect 15 0 13 0;
#X connect 15 1 14 0;
#X connect 16 0 8 1;
#X connect 17 0 12 0;
#X connect 18 0 19 0;
#X connect 19 0 9 1;
#X connect 20 0 21 1;
#X connect 21 0 18 0;
#X connect 22 0 29 0;
#X connect 22 0 30 0;
#X connect 23 0 25 0;
#X connect 24 0 23 0;
#X connect 25 0 22 1;
#X connect 26 0 27 0;
#X connect 27 0 25 1;
#X connect 28 0 9 0;
#X connect 31 0 4 0;
#X connect 32 0 5 0;
#X connect 33 0 26 0;
#X connect 34 0 31 0;
#X connect 35 0 32 0;
#X connect 36 0 2 1;
#X connect 37 0 2 2;
#X connect 38 0 3 1;
#X connect 39 0 3 2;
#X connect 40 0 28 2;
#X connect 41 0 12 1;
#X connect 42 0 12 2;
#X connect 43 0 10 0;
#X connect 44 0 20 0;
#X connect 45 0 9 2;
#X connect 46 0 9 3;
#X connect 47 0 23 1;
#X connect 48 0 23 2;
#X connect 49 0 33 0;
#X connect 50 0 15 0;
