#N canvas 249 312 535 300 12;
#X obj 82 85 osc~ 440;
#X obj 82 123 *~ 0.1;
#X obj 74 169 dac~;
#X obj 204 72 r testReceiver;
#X obj 204 118 route bang float symbol list;
#X obj 176 253 print BANG;
#X obj 257 255 print FLOAT;
#X obj 345 253 print SYMBOL;
#X obj 376 218 print LIST;
#X obj 425 182 print ANYTHING;
#X connect 0 0 1 0;
#X connect 1 0 2 0;
#X connect 1 0 2 1;
#X connect 3 0 4 0;
#X connect 4 0 5 0;
#X connect 4 1 6 0;
#X connect 4 2 7 0;
#X connect 4 3 8 0;
#X connect 4 4 9 0;
